<svg width="48" height="48" viewBox="0 0 48 48" fill="none" xmlns="http://www.w3.org/2000/svg">
  <defs>
    <radialGradient id="lensGrad" cx="38%" cy="32%" r="65%">
      <stop offset="0%" stop-color="#c084fc" />
      <stop offset="100%" stop-color="#4f46e5" />
    </radialGradient>
    <linearGradient id="handleGrad" x1="0%" y1="0%" x2="100%" y2="100%">
      <stop offset="0%" stop-color="#a855f7" />
      <stop offset="100%" stop-color="#312e81" />
    </linearGradient>
    <clipPath id="lensClip">
      <circle cx="19" cy="19" r="12.5" />
    </clipPath>
  </defs>

  <circle cx="19" cy="19" r="13.5" fill="#0f0f1a" />

  <g clip-path="url(#lensClip)" opacity="0.85">
    <rect x="9" y="12" width="20" height="2.2" rx="1" fill="#7c3aed" opacity="0.5" />
    <rect x="9" y="16.2" width="20" height="2.2" rx="1" fill="#6d28d9" opacity="0.4" />
    <rect x="9" y="20.4" width="20" height="2.2" rx="1" fill="#5b21b6" opacity="0.35" />
    <rect x="9" y="24.6" width="14" height="2.2" rx="1" fill="#4c1d95" opacity="0.3" />
    <rect x="16.5" y="11" width="1" height="17" fill="#a78bfa" opacity="0.25" />
    <rect x="10" y="12.2" width="3.5" height="1.8" rx="0.5" fill="#e879f9" opacity="0.9" />
  </g>

  <circle cx="19" cy="19" r="13.5" stroke="url(#lensGrad)" stroke-width="2.5" fill="none" />
  <ellipse cx="15" cy="14" rx="4" ry="2.5" fill="white" opacity="0.07" transform="rotate(-20 15 14)" />
  <line x1="29.5" y1="29.5" x2="39" y2="39" stroke="url(#handleGrad)" stroke-width="5" stroke-linecap="round" />
  <circle cx="32" cy="32" r="1.2" fill="#c084fc" opacity="0.6" />
</svg>
